<svg width="43" height="44" viewBox="0 0 43 44" fill="none" xmlns="http://www.w3.org/2000/svg">
<path data-part="mark" d="M7.20602 6.34483C10.3096 9.10043 12.5963 9.09062 15.6151 6.31148C17.4819 4.58359 19.339 2.84197 21.4139 1.31021C19.7436 3.17147 18.0656 5.02488 16.405 6.89202C15.3452 8.08221 14.751 9.62684 14.735 11.2332C14.719 12.8396 15.2824 14.3962 16.3183 15.608L16.3626 15.659C16.5061 15.8274 16.6837 15.9623 16.8833 16.0544C17.0828 16.1465 17.2995 16.1936 17.5185 16.1924H29.534C37.2303 16.1924 39.2743 27.0462 32.1906 29.992L36.165 37.641C40.2946 33.6763 42.7081 28.2039 42.8745 22.4276C43.0408 16.6513 40.9465 11.0443 37.0521 6.84005C35.1238 4.75833 32.8117 3.08365 30.2477 1.91164C27.6836 0.739631 24.918 0.0932394 22.1086 0.00937216C16.4348 -0.160005 10.9272 1.97218 6.79761 5.93688C6.92277 6.0838 7.05935 6.22023 7.20602 6.34483Z" fill="#6935CF"/>
<path data-part="mark" d="M30.5357 35.9602C29.2758 33.742 27.9812 30.551 26.6191 30.551V30.5177H23.8604C23.1109 30.5177 22.392 30.8208 21.862 31.3604C21.332 31.8999 21.0343 32.6318 21.0343 33.3949V40.5379H16.8114V33.3596C16.8114 31.4655 17.5503 29.6489 18.8657 28.3094C20.1811 26.9699 21.9652 26.2171 23.8257 26.2166H29.5146C33.1923 26.2166 33.1923 20.5288 29.5146 20.5288H16.3991V17.3006C16.3991 17.0885 16.3546 16.8789 16.2685 16.6857C16.1825 16.4926 16.0569 16.3204 15.9002 16.1807C15.6382 15.9473 15.3742 15.7158 15.1065 15.4903C14.0883 14.6379 12.806 14.1811 11.488 14.2012C10.1699 14.2213 8.9017 14.7171 7.9091 15.6001C5.86703 17.4104 3.90394 19.3109 1.68655 20.9525C3.37608 19.0696 5.07717 17.1986 6.75514 15.304C9.40983 12.3111 9.40791 10.0085 6.7744 6.93321C6.62782 6.75078 6.46881 6.57907 6.29856 6.41936C2.57006 10.199 0.340451 15.2448 0.0358927 20.5925C-0.268665 25.9402 1.37319 31.2146 4.64764 35.4075C7.92209 39.6005 12.5995 42.4179 17.7857 43.3213C22.972 44.2247 28.3033 43.1506 32.7608 40.3045L30.5357 35.9602Z" fill="#6935CF"/>
</svg>
