<svg width="24" height="24" viewBox="0 0 24 24" fill="none" xmlns="http://www.w3.org/2000/svg">
<path d="M5.18007 15.2964C3.92249 16.0335 0.625213 17.5386 2.63348 19.422C3.6145 20.342 4.7071 21 6.08077 21H13.9192C15.2929 21 16.3855 20.342 17.3665 19.422C19.3748 17.5386 16.0775 16.0335 14.8199 15.2964C11.8709 13.5679 8.12906 13.5679 5.18007 15.2964Z" stroke="#141B34" stroke-width="1.5" stroke-linecap="round" stroke-linejoin="round"/>
<path d="M14 7C14 9.20914 12.2091 11 10 11C7.79086 11 6 9.20914 6 7C6 4.79086 7.79086 3 10 3C12.2091 3 14 4.79086 14 7Z" stroke="#141B34" stroke-width="1.5"/>
<path d="M21.4679 9.5286C21.7599 9.82245 22.2348 9.82399 22.5286 9.53205C22.8224 9.24012 22.824 8.76525 22.5321 8.4714L21.4679 9.5286ZM20.6137 7.60465L20.0817 8.13325L21.4679 9.5286L22 9L22.5321 8.4714L21.1458 7.07605L20.6137 7.60465ZM21.4 5.7H22.15C22.15 3.79462 20.6054 2.25 18.7 2.25V3V3.75C19.777 3.75 20.65 4.62304 20.65 5.7H21.4ZM18.7 3V2.25C16.7946 2.25 15.25 3.79462 15.25 5.7H16H16.75C16.75 4.62304 17.623 3.75 18.7 3.75V3ZM16 5.7H15.25C15.25 7.60538 16.7946 9.15 18.7 9.15V8.4V7.65C17.623 7.65 16.75 6.77696 16.75 5.7H16ZM18.7 8.4V9.15C20.6054 9.15 22.15 7.60538 22.15 5.7H21.4H20.65C20.65 6.77696 19.777 7.65 18.7 7.65V8.4Z" fill="#141B34"/>
</svg>
